<svg width="100%" height="48" viewBox="0 0 390 48" xmlns="http://www.w3.org/2000/svg" preserveAspectRatio="none">
  <!-- Partie gauche -->
  <path d="M93 0H46.765C42.4112 0 40.2286 0 38.2588 0.819C36.516 1.544 34.9074 2.732 33.512 4.313C31.9358 6.1 30.7559 8.563 28.4035 13.492L18.3615 34.508C16.0091 39.436 14.847 41.9 13.2708 43.686C11.8752 45.267 10.2494 46.456 8.50623 47.181C6.53646 48 4.35383 48 0 48H93V0Z" fill="white"/>

  <!-- Partie droite -->
  <path d="M297 0H343.235C347.589 0 349.771 0 351.741 0.819C353.484 1.544 355.093 2.732 356.488 4.313C358.064 6.1 359.244 8.563 361.596 13.492L371.639 34.508C373.991 39.436 375.153 41.9 376.729 43.686C378.125 45.267 379.751 46.456 381.494 47.181C383.464 48 385.646 48 390 48H297V0Z" fill="white"/>

  <!-- Partie centrale élargie pour chevauchement -->
  <rect x="91" y="0" width="208" height="48" fill="white"/>
</svg>